<mxfile host="d3269ba9-6919-4485-8814-ce4d1c49a861" modified="2020-07-30T12:38:07.474Z" agent="5.0 (Windows NT 10.0; Win64; x64) AppleWebKit/537.36 (KHTML, like Gecko) Code/1.47.3 Chrome/78.0.3904.130 Electron/7.3.2 Safari/537.36" etag="Xwjg4aoswozdFoM8i4eV" version="13.1.3">
    <diagram id="6hGFLwfOUW9BJ-s0fimq" name="Page-1">
        <mxGraphModel dx="2644" dy="1766" grid="1" gridSize="10" guides="1" tooltips="1" connect="1" arrows="1" fold="1" page="1" pageScale="1" pageWidth="827" pageHeight="1169" math="0" shadow="0">
            <root>
                <mxCell id="0"/>
                <mxCell id="1" parent="0"/>
                <mxCell id="4" value="Help" style="text;html=1;align=center;verticalAlign=middle;whiteSpace=wrap;rounded=0;fontColor=#FFFFFF;" parent="1" vertex="1">
                    <mxGeometry x="-380" y="-1154" width="60" height="30" as="geometry"/>
                </mxCell>
                <mxCell id="8" value="" style="rounded=0;whiteSpace=wrap;html=1;" parent="1" vertex="1">
                    <mxGeometry x="-830" y="-1169" width="650" height="779" as="geometry"/>
                </mxCell>
                <mxCell id="2" value="" style="rounded=0;whiteSpace=wrap;html=1;" parent="1" vertex="1">
                    <mxGeometry x="-827" y="-1169" width="647" height="60" as="geometry"/>
                </mxCell>
                <mxCell id="3" value="" style="ellipse;whiteSpace=wrap;html=1;aspect=fixed;fillColor=#1A1A1A;" parent="1" vertex="1">
                    <mxGeometry x="-810" y="-1163.5" width="49" height="49" as="geometry"/>
                </mxCell>
                <mxCell id="7" value="" style="rounded=1;whiteSpace=wrap;html=1;fillColor=#6166A2;fontColor=#FFFFFF;" parent="1" vertex="1">
                    <mxGeometry x="-660" y="-1040" width="280" height="130" as="geometry"/>
                </mxCell>
                <mxCell id="12" value="&lt;font size=&quot;1&quot;&gt;&lt;b style=&quot;font-size: 14px ; background-color: rgb(0 , 0 , 0)&quot;&gt;Mühazirə dərsini başlat&lt;/b&gt;&lt;/font&gt;" style="rounded=1;whiteSpace=wrap;html=1;fillColor=#6166A2;fontColor=#FFFFFF;" parent="1" vertex="1">
                    <mxGeometry x="-620" y="-870" width="190" height="50" as="geometry"/>
                </mxCell>
                <mxCell id="17" value="Seminar" style="text;html=1;strokeColor=#3700CC;fillColor=#6a00ff;align=center;verticalAlign=middle;whiteSpace=wrap;rounded=0;fontColor=#ffffff;" parent="1" vertex="1">
                    <mxGeometry x="-740" y="-1145.5" width="60" height="25.5" as="geometry"/>
                </mxCell>
                <mxCell id="18" value="Mühazirə" style="text;html=1;strokeColor=#A50040;fillColor=#d80073;align=center;verticalAlign=middle;whiteSpace=wrap;rounded=0;fontColor=#ffffff;" parent="1" vertex="1">
                    <mxGeometry x="-670" y="-1144" width="60" height="24" as="geometry"/>
                </mxCell>
                <mxCell id="19" value="Vəsaitlər" style="text;html=1;strokeColor=#3700CC;fillColor=#6a00ff;align=center;verticalAlign=middle;whiteSpace=wrap;rounded=0;fontColor=#ffffff;" parent="1" vertex="1">
                    <mxGeometry x="-600" y="-1144" width="60" height="24" as="geometry"/>
                </mxCell>
                <mxCell id="37" style="edgeStyle=orthogonalEdgeStyle;rounded=0;orthogonalLoop=1;jettySize=auto;html=1;exitX=0.5;exitY=1;exitDx=0;exitDy=0;entryX=0.75;entryY=1;entryDx=0;entryDy=0;" parent="1" source="19" target="19" edge="1">
                    <mxGeometry relative="1" as="geometry"/>
                </mxCell>
                <mxCell id="38" value="Vəsaitlər" style="text;html=1;strokeColor=#3700CC;fillColor=#6a00ff;align=center;verticalAlign=middle;whiteSpace=wrap;rounded=0;fontColor=#ffffff;" parent="1" vertex="1">
                    <mxGeometry x="-530" y="-1145.5" width="60" height="25.5" as="geometry"/>
                </mxCell>
                <mxCell id="40" value="Tapşırıqlar" style="text;html=1;strokeColor=#3700CC;fillColor=#6a00ff;align=center;verticalAlign=middle;whiteSpace=wrap;rounded=0;fontColor=#ffffff;" parent="1" vertex="1">
                    <mxGeometry x="-460" y="-1144" width="60" height="24" as="geometry"/>
                </mxCell>
                <mxCell id="41" value="Jurnal" style="text;html=1;strokeColor=#3700CC;fillColor=#6a00ff;align=center;verticalAlign=middle;whiteSpace=wrap;rounded=0;fontColor=#ffffff;" vertex="1" parent="1">
                    <mxGeometry x="-390" y="-1145.5" width="50" height="24" as="geometry"/>
                </mxCell>
                <mxCell id="42" value="Mövzunun adı&amp;nbsp;" style="rounded=0;whiteSpace=wrap;html=1;align=left;" vertex="1" parent="1">
                    <mxGeometry x="-640" y="-1020" width="240" height="30" as="geometry"/>
                </mxCell>
                <mxCell id="43" value="Tarix" style="rounded=0;whiteSpace=wrap;html=1;align=left;" vertex="1" parent="1">
                    <mxGeometry x="-640" y="-970" width="240" height="30" as="geometry"/>
                </mxCell>
                <mxCell id="44" value="QURUP" style="text;html=1;strokeColor=#3700CC;fillColor=#6a00ff;align=center;verticalAlign=middle;whiteSpace=wrap;rounded=0;fontColor=#ffffff;" vertex="1" parent="1">
                    <mxGeometry x="-250" y="-1145.5" width="50" height="24" as="geometry"/>
                </mxCell>
            </root>
        </mxGraphModel>
    </diagram>
</mxfile>